<svg xmlns="http://www.w3.org/2000/svg" width="16" height="28" viewBox="0 0 16 28">
    <g fill="none" fill-rule="evenodd">
        <g fill="#FFF" fill-rule="nonzero">
            <g>
                <g>
                    <g>
                        <path d="M1252.566 12.907l-12.12-12.46c-.28-.288-.655-.447-1.054-.447s-.773.159-1.053.447l-.893.918c-.58.597-.58 1.57 0 2.166l10.178 10.463-10.189 10.475c-.28.288-.435.673-.435 1.083 0 .41.155.795.435 1.084l.893.917c.28.288.654.447 1.053.447.4 0 .773-.159 1.054-.447l12.13-12.472c.282-.29.436-.675.435-1.086 0-.412-.153-.798-.434-1.088z" transform="translate(-1411 -5808) translate(-3 2506) translate(177 3302)"/>
                    </g>
                </g>
            </g>
        </g>
    </g>
</svg>
